<?xml version="1.0" encoding="UTF-8" standalone="no"?>
<svg
   width="124.40344"
   height="45"
   viewBox="0 0 124.40344 45"
   version="1.1"
   xml:space="preserve"
   style="clip-rule:evenodd;fill-rule:evenodd;stroke-linejoin:round;stroke-miterlimit:2"
   id="svg25"
   sodipodi:docname="1_KO.svg"
   inkscape:version="1.4 (e7c3feb1, 2024-10-09)"
   inkscape:export-filename="1_KO.svg"
   inkscape:export-xdpi="96"
   inkscape:export-ydpi="96"
   xmlns:inkscape="http://www.inkscape.org/namespaces/inkscape"
   xmlns:sodipodi="http://sodipodi.sourceforge.net/DTD/sodipodi-0.dtd"
   xmlns="http://www.w3.org/2000/svg"
   xmlns:svg="http://www.w3.org/2000/svg"
   xmlns:serif="http://www.serif.com/"><sodipodi:namedview
     id="namedview1"
     pagecolor="#ffffff"
     bordercolor="#000000"
     borderopacity="0.25"
     inkscape:showpageshadow="2"
     inkscape:pageopacity="0.0"
     inkscape:pagecheckerboard="0"
     inkscape:deskcolor="#d1d1d1"
     inkscape:zoom="3.2684047"
     inkscape:cx="45.129051"
     inkscape:cy="32.431725"
     inkscape:window-width="1264"
     inkscape:window-height="733"
     inkscape:window-x="0"
     inkscape:window-y="25"
     inkscape:window-maximized="0"
     inkscape:current-layer="svg25" /><defs
     id="defs25" /><g
     id="g1"
     transform="matrix(0.12703764,0,0,0.12703764,-6.9992338,-1.3195757)"
     style="display:none"
     sodipodi:insensitive="true"><path
       id="path1"
       d="m 224.573,355.568 c -31.34,-0.397 -62.927,-8.015 -89.255,-25.46 C 101.46,307.906 74.487,274.539 63.056,235.413 47.43,188.216 55.039,133.816 83.86,93.125 104.302,62.669 134.657,38.914 169.731,28.04 c 31.126,-10.793 65.137,-12.052 97.203,-4.774 26.868,6.259 52.214,18.981 73.223,36.938 36.836,32.077 59.86,80.495 57.412,129.756 -0.914,32.393 -12.262,64.147 -30.057,91.032 -25.907,37.567 -66.791,64.921 -112.079,72.031 -10.102,2.114 -20.541,2.709 -30.86,2.545 z m -0.9,-11.312 c 35.22,-19.48 70.795,-46.972 82.028,-87.544 4.432,-10.098 4.022,-36.373 -9.893,-19.834 -5.925,34.158 -29.424,62.961 -58.621,80.634 -12.095,10.214 -31.118,14.714 -41.378,24.316 8.694,2.4 19.089,3.184 27.864,2.428 z m 21.829,-0.446 c 15.165,-0.774 30.221,-4.725 40.5,-16.63 25.025,-23.116 47.479,-55.019 44.216,-90.771 3.497,-16.545 -21.75,-12.982 -14.43,1.985 -0.197,39.73 -29.377,72.004 -59.731,94.163 -1.543,3.062 -25.439,12.799 -10.555,11.253 z m -67.119,-6.047 c 24.431,-9.157 48.86,-19.779 69.092,-36.752 19.165,-14.922 32.602,-36.696 37.898,-60.231 -5.897,4.381 -16.767,5.877 -21.052,14.929 -5.234,16.745 -18.023,29.722 -33.182,38.13 -22.725,15.243 -47.784,27.053 -74.269,34.064 -0.988,4.822 17.12,8.726 21.513,9.86 z m 119.743,-9.075 c 19.073,-9.013 38.732,-21.805 46.013,-42.666 6.548,-17.643 13.852,-37.915 6.446,-56.407 -7.882,-2.568 -17.075,-8.006 -12.673,5.289 2.438,36.259 -16.688,70.58 -43.251,93.988 -3.062,2.53 3.826,-0.247 3.465,-0.204 z M 148.778,320.31 c 32.722,-4.265 61.598,-22.132 88.783,-39.723 11.61,-4.954 23.677,-33.811 2.767,-16.965 -36.116,18.924 -71.788,45.162 -114.461,44.317 -5.162,2.735 18.128,16.66 22.911,12.371 z m -9.81,-20.107 c 39.609,-5.185 71.903,-30.509 106.701,-47.95 27.588,-14.658 54.687,-33.375 86.369,-37.284 16.448,-0.667 34.785,7.904 40.354,24.366 10.327,7.145 7.369,-21.871 -2.594,-25 -12.574,-11.638 -29.76,-17.553 -46.85,-14.39 -33.317,6.65 -60.782,28.473 -90.83,43.059 -26.461,13.778 -51.796,30.564 -80.453,39.439 -17.614,4.957 -36.479,4.856 -53.979,-0.282 5.475,13.521 21.888,20.44 36.472,18.328 l 1.915,-0.075 z m 215.965,-17.94 c 8.709,-12.726 21.134,-32.304 7.311,-45.529 -0.816,15.051 -2.157,31.067 -8.286,45.386 l -0.175,1.843 z m -223.232,-2.906 c 34.032,-3.509 62.215,-24.933 92.051,-39.726 30.526,-15.991 59.435,-36.473 93.013,-45.596 22.301,-6.452 47.899,0.88 63.186,18.399 15.899,1.248 -6.204,-23.035 -14.316,-27.127 -26.2,-17.115 -59.202,-6.866 -84.599,6.526 -43.602,21.737 -84.582,48.736 -129.425,67.938 -24.183,9.409 -52.902,5.81 -73.69,-9.633 3.438,13.096 13.638,25.46 27.92,27.124 8.454,1.952 17.188,2.637 25.86,2.095 z m 2.422,-22.488 c 28.61,-5.552 52.782,-22.923 78.362,-35.886 29.314,-15.427 57.314,-33.795 88.343,-45.691 25.019,-9.788 58.69,-10.358 77.156,12.085 3.47,7.661 12.588,19.175 8.17,3.386 -7.134,-25.551 -35.139,-39.741 -60.434,-36.757 -38.726,4.015 -70.919,28.367 -104.684,45.564 -26.773,13.605 -51.992,30.924 -80.594,40.489 -24.901,7.237 -52.572,-0.532 -71.182,-18.274 -0.441,10.58 9.989,23.83 21.196,28.326 13.464,6.646 28.833,8.728 43.667,6.758 z m -3.391,-22.326 c 27.262,-5.786 50.508,-22.46 75.069,-34.815 33.205,-17.518 65.021,-38.652 101.032,-50.097 28.493,-8.805 63.903,-1.124 79.845,25.862 5.079,-2.168 -4.569,-24.925 -13.754,-29.515 -26.604,-22.917 -65.816,-16.691 -94.971,-2.316 -36.617,17.705 -71.138,39.324 -107.103,58.295 -22.42,13.039 -49.889,24.685 -75.597,13.744 -11.777,-0.49 -26.124,-22.11 -30.208,-20.263 3.196,27.368 33.69,41.065 58.565,39.59 2.377,-0.071 4.766,-0.126 7.122,-0.485 z m -5.693,-22.891 c 30.201,-4.799 54.741,-24.882 81.661,-37.938 36.735,-19.159 71.679,-46.147 114.083,-50.579 23.186,-2.441 47.644,6.299 62.886,24.034 -2.154,-23.912 -27.084,-37.098 -48.678,-39.219 -43.221,-3.646 -80.714,22.336 -116.814,42.233 -27.141,14.972 -53.093,32.741 -82.229,43.673 -25.208,8.642 -55.42,-1.811 -69.47,-24.44 -4.147,15.273 13.249,31.785 27.7,37.869 9.83,3.644 20.392,5.419 30.861,4.367 z m -5.087,-22.886 c 30.442,-2.792 54.503,-23.712 81.014,-36.774 31.888,-17.997 62.862,-39.425 98.722,-48.688 24.248,-6.847 50.875,-2.581 72.097,10.782 -5.052,-14.462 -18.152,-23.895 -33.101,-26.321 -41.53,-8.551 -80.418,13.625 -114.815,33.976 -28.007,15.241 -54.326,33.729 -83.327,47.039 -24.617,12.047 -57.375,3.371 -71.444,-20.432 -4.19,13.628 9.104,27.681 21.018,33.806 9.014,4.839 19.602,7.351 29.836,6.612 z m 3.876,-23.118 c 31.229,-7.682 56.671,-28.82 84.781,-43.44 35.001,-20.277 71.456,-44.959 113.678,-43.427 7.122,-2.934 38.494,12.182 23.137,-1.546 C 334.648,63.827 316.55,64.256 301.02,65.567 c -51.048,6.651 -90.995,42.049 -135.044,65.375 -20.538,13.323 -47.171,28.236 -71.637,16.181 -12.599,0.208 -17.308,-35.445 -21.514,-13.132 0.9,19.928 23.005,31.58 40.91,32.159 3.367,-0.044 6.758,0.068 10.093,-0.502 z m -15.815,-23.147 c -0.718,-38.36 22.873,-71.913 50.585,-96.277 9.85,-11.141 -13.46,3.852 -17.976,5.958 -15.743,10.193 -31.46,22.173 -38.318,40.357 -6.201,14.228 -11.481,31.272 -5.762,46.329 2.803,2.006 7.923,5.328 11.471,3.633 z m 17.147,-0.204 c 10.994,-2.145 4.689,-20.666 11.506,-28.667 13.775,-33.75 43.425,-58.269 75.213,-74.567 4.511,-4.101 33.883,-12.639 12.892,-10.41 -14.91,0.603 -30.661,0.827 -43.189,10.173 -26.269,16.152 -48.473,40.424 -59.692,69.367 -1.497,9.267 -14.07,34.527 1.183,34.296 z m 17.141,-6.691 c 19.395,-4.657 18.48,-29.484 33.184,-40.876 20.096,-21.538 46.094,-37.3 73.352,-48.096 9.225,-4.537 24.617,-5.49 31.112,-9.847 -18.276,-7.136 -38.054,-5.727 -55.03,4.318 -36.082,16.681 -72.161,43.492 -83.748,83.309 0.472,2.185 -5.631,15.857 1.13,11.192 z m -55.782,-6.731 c -4.022,-6.361 5.694,-28.765 0.759,-24.041 -6.78,6.697 -7.788,22.428 -0.759,24.041 z m 84.371,-8.815 c 32.531,-17.469 60.412,-43.853 96.227,-54.89 17.049,-5.868 35.245,-8.403 53.195,-7.363 -11.516,-12.616 -30.987,-15.059 -47.27,-10.009 -32.27,6.907 -62.435,23.515 -86.504,45.939 -3.266,3.981 -24.305,26.728 -15.648,26.323 z"
       style="fill-rule:nonzero" /></g><g
     id="g25"
     transform="matrix(0.12703764,0,0,0.12703764,-5.4319261,-1.3195757)"
     style="display:inline"><g
       transform="matrix(1.00643,0,0,1.00643,432.128,6.05581)"
       id="g8"
       style="display:inline"><g
         transform="matrix(204.932,0,0,204.932,0,157.388)"
         id="g2"><path
           d="m 0.067,0 h 0.25 C 0.358,0.001 0.387,-0.02 0.388,-0.055 0.389,-0.077 0.38,-0.092 0.359,-0.11 0.337,-0.129 0.329,-0.148 0.33,-0.179 l 0.001,-0.087 c 0,-0.017 0.008,-0.028 0.021,-0.028 0.023,0 0.037,0.021 0.059,0.083 l 0.048,0.137 C 0.477,-0.023 0.508,0 0.556,0 H 0.705 C 0.74,0 0.769,-0.014 0.769,-0.052 0.769,-0.077 0.761,-0.096 0.744,-0.115 0.733,-0.127 0.715,-0.162 0.703,-0.197 L 0.684,-0.253 C 0.647,-0.362 0.592,-0.418 0.512,-0.437 c -0.019,-0.004 -0.018,-0.026 0,-0.034 0.031,-0.013 0.109,-0.022 0.184,-0.022 0.026,0 0.036,-0.015 0.036,-0.037 0,-0.042 -0.013,-0.113 -0.029,-0.166 -0.009,-0.032 -0.026,-0.051 -0.054,-0.051 -0.059,0 -0.112,0.031 -0.168,0.083 -0.033,0.031 -0.079,0.098 -0.119,0.163 -0.011,0.018 -0.033,0.017 -0.033,-0.006 v -0.056 c -0.001,-0.031 0.005,-0.05 0.028,-0.068 0.022,-0.018 0.03,-0.033 0.03,-0.054 0,-0.035 -0.028,-0.057 -0.069,-0.057 H 0.067 c -0.035,0 -0.059,0.022 -0.059,0.057 0,0.021 0.008,0.036 0.026,0.054 0.019,0.018 0.024,0.037 0.024,0.068 v 0.384 c 0,0.031 -0.005,0.05 -0.024,0.068 C 0.016,-0.093 0.008,-0.078 0.008,-0.057 0.008,-0.022 0.032,0 0.067,0 Z"
           style="fill-rule:nonzero"
           id="path2" /></g><g
         transform="matrix(204.932,0,0,204.932,162.716,157.388)"
         id="g3"><path
           d="m 0.067,0 h 0.501 c 0.051,0 0.07,-0.026 0.09,-0.142 0.01,-0.059 0.014,-0.087 0.014,-0.104 0,-0.025 -0.013,-0.039 -0.035,-0.039 -0.036,0 -0.052,0.019 -0.147,0.093 C 0.445,-0.157 0.408,-0.133 0.374,-0.131 0.349,-0.13 0.329,-0.152 0.329,-0.199 v -0.004 c 0,-0.076 0.02,-0.12 0.054,-0.119 0.036,0.001 0.073,0.059 0.109,0.059 0.029,0 0.042,-0.015 0.056,-0.039 0.02,-0.034 0.036,-0.087 0.036,-0.124 0,-0.02 -0.013,-0.036 -0.035,-0.036 H 0.377 C 0.34,-0.462 0.33,-0.474 0.33,-0.516 v -0.023 c 0,-0.038 0.018,-0.073 0.052,-0.073 0.023,0 0.04,0.01 0.084,0.04 0.055,0.038 0.117,0.081 0.152,0.081 0.028,0 0.042,-0.022 0.042,-0.048 0,-0.03 -0.017,-0.09 -0.038,-0.164 C 0.615,-0.729 0.596,-0.742 0.566,-0.742 h -0.5 c -0.035,0 -0.057,0.021 -0.058,0.056 0,0.02 0.008,0.036 0.023,0.052 0.02,0.02 0.028,0.04 0.027,0.075 v 0.38 c 0,0.031 -0.005,0.05 -0.024,0.068 C 0.016,-0.093 0.008,-0.078 0.008,-0.057 0.008,-0.022 0.032,0 0.067,0 Z"
           style="fill-rule:nonzero"
           id="path3" /></g><g
         transform="matrix(204.932,0,0,204.932,302.274,157.388)"
         id="g4"><path
           d="m 0.067,0 h 0.501 c 0.051,0 0.07,-0.026 0.09,-0.142 0.01,-0.059 0.014,-0.087 0.014,-0.104 0,-0.025 -0.013,-0.039 -0.035,-0.039 -0.036,0 -0.052,0.019 -0.147,0.093 C 0.445,-0.157 0.408,-0.133 0.374,-0.131 0.349,-0.13 0.329,-0.152 0.329,-0.199 v -0.004 c 0,-0.076 0.02,-0.12 0.054,-0.119 0.036,0.001 0.073,0.059 0.109,0.059 0.029,0 0.042,-0.015 0.056,-0.039 0.02,-0.034 0.036,-0.087 0.036,-0.124 0,-0.02 -0.013,-0.036 -0.035,-0.036 H 0.377 C 0.34,-0.462 0.33,-0.474 0.33,-0.516 v -0.023 c 0,-0.038 0.018,-0.073 0.052,-0.073 0.023,0 0.04,0.01 0.084,0.04 0.055,0.038 0.117,0.081 0.152,0.081 0.028,0 0.042,-0.022 0.042,-0.048 0,-0.03 -0.017,-0.09 -0.038,-0.164 C 0.615,-0.729 0.596,-0.742 0.566,-0.742 h -0.5 c -0.035,0 -0.057,0.021 -0.058,0.056 0,0.02 0.008,0.036 0.023,0.052 0.02,0.02 0.028,0.04 0.027,0.075 v 0.38 c 0,0.031 -0.005,0.05 -0.024,0.068 C 0.016,-0.093 0.008,-0.078 0.008,-0.057 0.008,-0.022 0.032,0 0.067,0 Z"
           style="fill-rule:nonzero"
           id="path4" /></g><g
         transform="matrix(204.932,0,0,204.932,441.833,157.388)"
         id="g5"><path
           d="M 0.067,0 H 0.32 C 0.361,0.001 0.39,-0.021 0.39,-0.056 0.391,-0.077 0.382,-0.092 0.361,-0.11 0.339,-0.129 0.33,-0.148 0.331,-0.179 v 0.003 c 0,-0.023 0.006,-0.037 0.028,-0.046 0.048,-0.018 0.114,-0.044 0.141,-0.054 0.14,-0.053 0.207,-0.126 0.207,-0.23 0,-0.147 -0.094,-0.236 -0.262,-0.236 H 0.066 c -0.035,0 -0.057,0.021 -0.058,0.056 0,0.02 0.008,0.036 0.023,0.052 0.02,0.02 0.028,0.04 0.027,0.075 v 0.38 c 0,0.031 -0.005,0.05 -0.024,0.068 C 0.016,-0.093 0.008,-0.078 0.008,-0.057 0.008,-0.022 0.032,0 0.067,0 Z m 0.264,-0.392 v -0.186 c 0,-0.015 0.007,-0.024 0.021,-0.023 0.039,0 0.065,0.047 0.065,0.105 0,0.06 -0.023,0.095 -0.053,0.115 -0.006,0.004 -0.014,0.008 -0.021,0.008 -0.009,0 -0.012,-0.008 -0.012,-0.019 z"
           style="fill-rule:nonzero"
           id="path5" /></g><g
         transform="matrix(204.932,0,0,204.932,0,343.689)"
         id="g6"><path
           d="m 0.421,0.016 c 0.209,0 0.376,-0.153 0.376,-0.359 0,-0.25 -0.16,-0.413 -0.407,-0.413 -0.213,-0.001 -0.383,0.162 -0.383,0.381 0,0.236 0.162,0.391 0.414,0.391 z m -0.124,-0.5 c 0,-0.068 0.023,-0.108 0.063,-0.108 0.076,0 0.147,0.195 0.147,0.329 0,0.073 -0.021,0.115 -0.062,0.115 -0.076,0 -0.148,-0.202 -0.148,-0.336 z"
           style="fill-rule:nonzero"
           id="path6" /></g><g
         transform="matrix(204.932,0,0,204.932,157.593,343.689)"
         id="g7"><path
           d="m 0.531,0.002 h 0.047 c 0.078,0 0.093,-0.023 0.093,-0.112 L 0.67,-0.559 c 0,-0.035 0.005,-0.055 0.025,-0.074 0.016,-0.016 0.024,-0.032 0.024,-0.052 0,-0.035 -0.022,-0.057 -0.057,-0.057 H 0.498 c -0.039,-0.001 -0.064,0.021 -0.065,0.056 0,0.02 0.009,0.036 0.026,0.052 0.023,0.02 0.031,0.04 0.03,0.075 v 0.043 c 0,0.012 -0.011,0.015 -0.019,0.005 L 0.328,-0.693 C 0.3,-0.729 0.284,-0.742 0.231,-0.742 H 0.067 c -0.035,0 -0.057,0.021 -0.058,0.056 0,0.02 0.008,0.036 0.023,0.052 0.02,0.02 0.028,0.04 0.027,0.075 v 0.38 c 0,0.031 -0.005,0.05 -0.024,0.068 C 0.017,-0.093 0.009,-0.078 0.009,-0.057 0.009,-0.022 0.033,0 0.068,0 H 0.227 C 0.268,0.001 0.297,-0.021 0.297,-0.056 0.298,-0.077 0.289,-0.092 0.268,-0.11 0.246,-0.129 0.237,-0.148 0.238,-0.179 v -0.16 c 0,-0.016 0.011,-0.018 0.021,-0.006 l 0.192,0.233 c 0.018,0.022 0.027,0.037 0.03,0.059 0.005,0.038 0.019,0.055 0.05,0.055 z"
           style="fill-rule:nonzero"
           id="path7" /></g></g><g
       id="g26"
       style="display:none"><path
         d="m 818.748,203.058 c 0,5.438 -1.39,10.375 -4.172,14.813 -2.781,4.437 -6.968,8.046 -12.562,10.828 -5.594,2.781 -12.422,4.359 -20.485,4.734 -1.375,8.875 -2.281,15.25 -2.718,19.125 -0.313,2.438 -0.938,4.141 -1.875,5.109 -0.938,0.969 -2.594,1.454 -4.969,1.454 -4.313,0 -6.469,-1.875 -6.469,-5.625 0,-1.438 0.235,-3.797 0.703,-7.079 0.469,-3.281 0.985,-6.765 1.547,-10.453 l 0.469,-3 -3.094,-0.468 c -1.875,-0.313 -3.109,-0.907 -3.703,-1.782 -0.594,-0.875 -0.891,-1.937 -0.891,-3.187 0,-1.438 0.391,-2.531 1.172,-3.281 0.782,-0.75 1.828,-1.125 3.141,-1.125 0.312,0 0.844,0.062 1.594,0.187 1.312,0.25 2.437,0.406 3.375,0.469 l 1.875,-10.688 c 1.312,-7.562 2.437,-14.906 3.375,-22.031 -1.75,0.563 -3.313,1.219 -4.688,1.969 -0.75,0.375 -1.437,0.562 -2.062,0.562 -1,0 -1.828,-0.359 -2.485,-1.078 -0.656,-0.719 -0.984,-1.609 -0.984,-2.672 0,-2.25 1.312,-4.187 3.937,-5.812 2.313,-1.438 5.25,-2.578 8.813,-3.422 3.562,-0.844 7.281,-1.266 11.156,-1.266 6.625,0 12.188,1.032 16.688,3.094 4.5,2.063 7.843,4.875 10.031,8.438 2.187,3.562 3.281,7.625 3.281,12.187 z m -35.719,20.813 c 14.688,-1.313 22.032,-8.063 22.032,-20.25 0,-4.5 -1.297,-7.954 -3.891,-10.36 -2.594,-2.406 -6.766,-3.734 -12.516,-3.984 -0.812,5.625 -2.062,13.5 -3.75,23.625 z"
         style="fill-rule:nonzero"
         id="path8" /><path
         d="m 824.186,259.121 c -2.375,0 -4.047,-1.25 -5.016,-3.75 -0.969,-2.5 -1.453,-6.5 -1.453,-12 0,-8.125 1.156,-15.844 3.469,-23.157 0.562,-1.812 1.484,-3.14 2.765,-3.984 1.282,-0.844 3.078,-1.266 5.391,-1.266 1.25,0 2.125,0.157 2.625,0.469 0.5,0.313 0.75,0.906 0.75,1.781 0,1 -0.469,3.25 -1.406,6.75 -0.625,2.5 -1.125,4.688 -1.5,6.563 -0.375,1.875 -0.688,4.187 -0.938,6.937 2.063,-5.375 4.375,-9.75 6.938,-13.125 2.562,-3.375 5.078,-5.781 7.547,-7.218 2.468,-1.438 4.734,-2.157 6.796,-2.157 4.063,0 6.094,2.032 6.094,6.094 0,0.813 -0.281,2.781 -0.844,5.906 -0.5,2.5 -0.75,4.063 -0.75,4.688 0,2.187 0.782,3.281 2.344,3.281 1.75,0 4,-1.375 6.75,-4.125 0.813,-0.812 1.656,-1.219 2.531,-1.219 0.813,0 1.454,0.36 1.922,1.078 0.469,0.719 0.703,1.672 0.703,2.86 0,2.312 -0.625,4.125 -1.875,5.437 -1.75,1.813 -3.796,3.36 -6.14,4.641 -2.344,1.281 -4.828,1.922 -7.453,1.922 -3.313,0 -5.828,-0.844 -7.547,-2.531 -1.719,-1.688 -2.578,-3.969 -2.578,-6.844 0,-0.938 0.093,-1.875 0.281,-2.813 0.125,-1.25 0.187,-2.093 0.187,-2.531 0,-1 -0.343,-1.5 -1.031,-1.5 -0.937,0 -2.172,1.047 -3.703,3.141 -1.531,2.093 -3.047,4.859 -4.547,8.297 -1.5,3.437 -2.719,7.062 -3.656,10.875 -0.688,2.937 -1.484,4.921 -2.391,5.953 -0.906,1.031 -2.328,1.547 -4.265,1.547 z"
         style="fill-rule:nonzero"
         id="path9" /><path
         d="m 870.123,208.777 c -2.625,0 -4.594,-0.61 -5.906,-1.828 -1.313,-1.219 -1.969,-2.922 -1.969,-5.11 0,-2.187 0.86,-4.015 2.578,-5.484 1.719,-1.469 3.86,-2.203 6.422,-2.203 2.313,0 4.188,0.562 5.625,1.687 1.438,1.125 2.156,2.719 2.156,4.782 0,2.5 -0.812,4.484 -2.437,5.953 -1.625,1.468 -3.781,2.203 -6.469,2.203 z m -0.75,50.344 c -4.062,0 -7.015,-1.438 -8.859,-4.313 -1.844,-2.875 -2.766,-6.687 -2.766,-11.437 0,-2.813 0.36,-6.422 1.078,-10.829 0.719,-4.406 1.641,-8.515 2.766,-12.328 0.562,-2 1.312,-3.375 2.25,-4.125 0.937,-0.75 2.437,-1.125 4.5,-1.125 3.187,0 4.781,1.063 4.781,3.188 0,1.562 -0.594,5.187 -1.781,10.875 -1.5,6.875 -2.25,11.531 -2.25,13.969 0,1.875 0.25,3.312 0.75,4.312 0.5,1 1.344,1.5 2.531,1.5 1.125,0 2.531,-0.781 4.219,-2.344 1.687,-1.562 3.937,-4.031 6.75,-7.406 0.75,-0.875 1.594,-1.312 2.531,-1.312 0.813,0 1.453,0.375 1.922,1.125 0.469,0.75 0.703,1.781 0.703,3.093 0,2.5 -0.594,4.438 -1.781,5.813 -6.188,7.562 -11.969,11.344 -17.344,11.344 z"
         style="fill-rule:nonzero"
         id="path10" /><path
         d="m 887.561,259.121 c -2.375,0 -4.047,-1.25 -5.016,-3.75 -0.969,-2.5 -1.453,-6.5 -1.453,-12 0,-8.125 1.156,-15.844 3.469,-23.157 0.562,-1.812 1.484,-3.14 2.765,-3.984 1.282,-0.844 3.078,-1.266 5.391,-1.266 1.25,0 2.125,0.157 2.625,0.469 0.5,0.313 0.75,0.906 0.75,1.781 0,1 -0.469,3.25 -1.406,6.75 -0.625,2.5 -1.125,4.688 -1.5,6.563 -0.375,1.875 -0.688,4.187 -0.938,6.937 2.063,-5.375 4.375,-9.75 6.938,-13.125 2.562,-3.375 5.078,-5.781 7.547,-7.218 2.468,-1.438 4.734,-2.157 6.796,-2.157 4.063,0 6.094,2.032 6.094,6.094 0,2.438 -0.687,6.844 -2.062,13.219 -1.188,5.437 -1.782,9.031 -1.782,10.781 0,2.5 0.907,3.75 2.719,3.75 1.25,0 2.735,-0.766 4.453,-2.297 1.719,-1.531 4.016,-4.015 6.891,-7.453 0.75,-0.875 1.594,-1.312 2.531,-1.312 0.813,0 1.453,0.375 1.922,1.125 0.469,0.75 0.703,1.781 0.703,3.093 0,2.5 -0.594,4.438 -1.781,5.813 -2.688,3.312 -5.578,6.031 -8.672,8.156 -3.094,2.125 -6.609,3.188 -10.547,3.188 -3.187,0 -5.594,-0.922 -7.219,-2.766 -1.625,-1.844 -2.437,-4.516 -2.437,-8.016 0,-1.75 0.437,-4.875 1.312,-9.375 0.813,-3.937 1.219,-6.656 1.219,-8.156 0,-1 -0.344,-1.5 -1.031,-1.5 -0.813,0 -1.953,1.047 -3.422,3.141 -1.469,2.093 -2.969,4.859 -4.5,8.297 -1.531,3.437 -2.766,7.062 -3.703,10.875 -0.688,2.937 -1.484,4.921 -2.391,5.953 -0.906,1.031 -2.328,1.547 -4.265,1.547 z"
         style="fill-rule:nonzero"
         id="path11" /><path
         d="m 969.217,237.746 c 0.812,0 1.453,0.375 1.922,1.125 0.469,0.75 0.703,1.781 0.703,3.093 0,2.5 -0.594,4.438 -1.781,5.813 -2.688,3.312 -5.625,6.031 -8.813,8.156 -3.187,2.125 -6.844,3.188 -10.969,3.188 -12.75,0 -19.125,-8.969 -19.125,-26.907 0,-2.75 0.094,-5.531 0.282,-8.343 h -3.657 c -1.875,0 -3.14,-0.344 -3.796,-1.032 -0.657,-0.687 -0.985,-1.781 -0.985,-3.281 0,-3.5 1.406,-5.25 4.219,-5.25 h 5.344 c 1.062,-6.875 2.687,-13.156 4.875,-18.844 2.187,-5.687 4.828,-10.218 7.922,-13.593 3.093,-3.375 6.421,-5.063 9.984,-5.063 2.625,0 4.687,1.156 6.187,3.469 1.5,2.312 2.25,5.219 2.25,8.719 0,9.687 -4.062,18.125 -12.187,25.312 h 10.5 c 1,0 1.719,0.219 2.156,0.656 0.438,0.438 0.656,1.25 0.656,2.438 0,4.312 -3.531,6.469 -10.593,6.469 h -11.438 c -0.125,3.125 -0.187,5.562 -0.187,7.312 0,6.5 0.765,11.063 2.297,13.688 1.531,2.625 3.953,3.937 7.265,3.937 2.688,0 5.063,-0.812 7.125,-2.437 2.063,-1.625 4.5,-4.063 7.313,-7.313 0.75,-0.875 1.593,-1.312 2.531,-1.312 z m -16.406,-51.938 c -0.938,0 -1.985,1.172 -3.141,3.516 -1.156,2.343 -2.25,5.593 -3.281,9.75 -1.031,4.156 -1.891,8.765 -2.578,13.828 3.687,-3.188 6.453,-6.766 8.297,-10.735 1.843,-3.968 2.765,-7.578 2.765,-10.828 0,-3.687 -0.687,-5.531 -2.062,-5.531 z"
         style="fill-rule:nonzero"
         id="path12" /><path
         d="m 976.529,208.777 c -2.625,0 -4.593,-0.61 -5.906,-1.828 -1.312,-1.219 -1.969,-2.922 -1.969,-5.11 0,-2.187 0.86,-4.015 2.579,-5.484 1.718,-1.469 3.859,-2.203 6.421,-2.203 2.313,0 4.188,0.562 5.625,1.687 1.438,1.125 2.157,2.719 2.157,4.782 0,2.5 -0.813,4.484 -2.438,5.953 -1.625,1.468 -3.781,2.203 -6.469,2.203 z m -0.75,50.344 c -4.062,0 -7.015,-1.438 -8.859,-4.313 -1.844,-2.875 -2.766,-6.687 -2.766,-11.437 0,-2.813 0.36,-6.422 1.079,-10.829 0.718,-4.406 1.64,-8.515 2.765,-12.328 0.563,-2 1.313,-3.375 2.25,-4.125 0.938,-0.75 2.438,-1.125 4.5,-1.125 3.188,0 4.781,1.063 4.781,3.188 0,1.562 -0.593,5.187 -1.781,10.875 -1.5,6.875 -2.25,11.531 -2.25,13.969 0,1.875 0.25,3.312 0.75,4.312 0.5,1 1.344,1.5 2.531,1.5 1.125,0 2.532,-0.781 4.219,-2.344 1.688,-1.562 3.938,-4.031 6.75,-7.406 0.75,-0.875 1.594,-1.312 2.531,-1.312 0.813,0 1.454,0.375 1.922,1.125 0.469,0.75 0.703,1.781 0.703,3.093 0,2.5 -0.593,4.438 -1.781,5.813 -6.187,7.562 -11.969,11.344 -17.344,11.344 z"
         style="fill-rule:nonzero"
         id="path13" /><path
         d="m 993.967,259.121 c -2.375,0 -4.047,-1.25 -5.016,-3.75 -0.968,-2.5 -1.453,-6.5 -1.453,-12 0,-8.125 1.156,-15.844 3.469,-23.157 0.562,-1.812 1.484,-3.14 2.766,-3.984 1.281,-0.844 3.078,-1.266 5.39,-1.266 1.25,0 2.125,0.157 2.625,0.469 0.5,0.313 0.75,0.906 0.75,1.781 0,1 -0.469,3.25 -1.406,6.75 -0.625,2.5 -1.125,4.688 -1.5,6.563 -0.375,1.875 -0.688,4.187 -0.938,6.937 2.063,-5.375 4.375,-9.75 6.938,-13.125 2.562,-3.375 5.078,-5.781 7.547,-7.218 2.469,-1.438 4.734,-2.157 6.797,-2.157 4.062,0 6.093,2.032 6.093,6.094 0,2.438 -0.687,6.844 -2.062,13.219 -1.188,5.437 -1.781,9.031 -1.781,10.781 0,2.5 0.906,3.75 2.718,3.75 1.25,0 2.735,-0.766 4.454,-2.297 1.718,-1.531 4.015,-4.015 6.89,-7.453 0.75,-0.875 1.594,-1.312 2.531,-1.312 0.813,0 1.454,0.375 1.922,1.125 0.469,0.75 0.703,1.781 0.703,3.093 0,2.5 -0.593,4.438 -1.781,5.813 -2.687,3.312 -5.578,6.031 -8.672,8.156 -3.093,2.125 -6.609,3.188 -10.547,3.188 -3.187,0 -5.593,-0.922 -7.218,-2.766 -1.625,-1.844 -2.438,-4.516 -2.438,-8.016 0,-1.75 0.438,-4.875 1.313,-9.375 0.812,-3.937 1.218,-6.656 1.218,-8.156 0,-1 -0.343,-1.5 -1.031,-1.5 -0.812,0 -1.953,1.047 -3.422,3.141 -1.468,2.093 -2.968,4.859 -4.5,8.297 -1.531,3.437 -2.765,7.062 -3.703,10.875 -0.687,2.937 -1.484,4.921 -2.39,5.953 -0.907,1.031 -2.329,1.547 -4.266,1.547 z"
         style="fill-rule:nonzero"
         id="path14" /><path
         d="m 1065.59,218.058 c 1.562,0 2.672,0.234 3.328,0.703 0.656,0.469 0.984,1.391 0.984,2.766 0,0.75 -0.031,1.344 -0.093,1.781 -0.25,1.938 -1.032,6.938 -2.344,15 -0.938,5.438 -1.531,9.031 -1.781,10.781 -2.375,16.125 -5.578,28.86 -9.61,38.203 -4.031,9.344 -9.422,14.016 -16.172,14.016 -3.187,0 -5.781,-0.984 -7.781,-2.953 -2,-1.969 -3,-4.547 -3,-7.734 0,-4.438 1.75,-9.204 5.25,-14.297 3.5,-5.094 10.063,-11.36 19.688,-18.797 l 0.562,-3.656 c -1.062,1.687 -2.453,2.984 -4.172,3.89 -1.718,0.906 -3.422,1.36 -5.109,1.36 -3.875,0 -6.969,-1.407 -9.281,-4.219 -2.313,-2.813 -3.469,-6.5 -3.469,-11.063 0,-5 1.156,-9.734 3.469,-14.203 2.312,-4.469 5.39,-8.062 9.234,-10.781 3.844,-2.719 7.922,-4.078 12.234,-4.078 1.375,0 2.297,0.265 2.766,0.797 0.469,0.531 0.859,1.484 1.172,2.859 1.187,-0.25 2.562,-0.375 4.125,-0.375 z m -16.875,31.594 c 1.437,0 2.812,-0.875 4.125,-2.625 1.312,-1.75 2.25,-4.25 2.812,-7.5 l 3,-16.031 c -2.562,0.062 -4.937,1.046 -7.125,2.953 -2.187,1.906 -3.937,4.422 -5.25,7.547 -1.312,3.125 -1.968,6.437 -1.968,9.937 0,1.938 0.39,3.375 1.172,4.313 0.781,0.937 1.859,1.406 3.234,1.406 z m -7.781,42.562 c 1.562,0 3.328,-1.875 5.297,-5.625 1.968,-3.75 3.859,-9.718 5.671,-17.906 -4.812,4.125 -8.281,7.844 -10.406,11.156 -2.125,3.313 -3.187,6.219 -3.187,8.719 0,1.063 0.203,1.938 0.609,2.625 0.406,0.688 1.078,1.031 2.016,1.031 z"
         style="fill-rule:nonzero"
         id="path15" /></g></g><g
     id="g24"
     style="clip-rule:evenodd;display:inline;fill-rule:evenodd;stroke-linejoin:round;stroke-miterlimit:2"
     inkscape:label="last splotch"
     transform="matrix(0.12703764,0,0,0.12703764,-8.8381761,-1.4277488)"><path
       d="m 976.559,349.857 c 1.636,0 6.254,-6.253 9.044,-3.752 2.79,2.501 5.58,2.213 5.58,5.003 0,2.79 -2.309,6.83 0,6.349 1.539,-0.288 0.673,-5.964 3.271,-6.157 2.597,-0.192 0.288,3.367 3.078,3.656 2.79,0.289 1.636,-4.618 3.56,-4.618 1.924,0 2.886,0 5.003,-0.962 2.213,-0.962 4.041,-3.56 5.965,-2.982 1.828,0.577 5.099,0.096 5.387,4.425 0.289,4.329 1.828,7.216 2.983,6.638 1.154,-0.577 0.384,-2.597 -0.77,-4.233 -1.155,-1.731 0.192,-1.25 -1.828,-4.425 -2.02,-3.079 -2.02,-4.041 0,-5.484 2.02,-1.443 1.539,-5.003 3.079,-5.003 1.539,0 3.559,-3.271 5.291,-2.02 1.732,1.251 1.828,0.192 0.481,-2.694 -1.443,-2.79 -2.02,-2.982 1.251,-5.003 3.271,-2.02 -0.385,-7.023 0.288,-8.466 0.578,-1.443 4.426,-2.116 1.732,-4.04 -2.694,-1.828 -2.694,-5.292 -0.962,-3.56 1.732,1.732 5.291,-0.577 1.539,-2.501 -3.752,-1.828 -2.309,-0.77 -2.212,-2.79 0.096,-2.021 -0.482,-1.444 -2.021,-1.828 -1.539,-0.481 1.058,-3.271 0.289,-5.196 -0.77,-1.827 -3.56,1.732 -4.714,0.193 -1.059,-1.539 1.731,-5.484 -0.481,-6.542 -2.213,-1.058 -2.694,3.463 -4.233,1.828 -1.54,-1.54 -1.155,-5.003 -2.502,-4.33 -1.347,0.77 -2.213,2.213 -2.79,1.54 -0.577,-0.577 5.965,-7.697 2.694,-9.044 -3.175,-1.347 -3.752,8.467 -6.157,7.889 -2.405,-0.673 1.058,-4.521 -0.962,-5.195 -2.021,-0.673 -1.251,3.945 -2.502,4.137 -1.25,0.192 -0.866,-2.02 -3.078,-1.732 -2.213,0.289 -2.983,-0.673 -2.213,-3.752 0.77,-3.078 -2.501,-4.81 -4.041,-2.501 -1.539,2.309 0.578,4.233 0.193,5.772 -0.385,1.54 -2.79,3.175 -5.292,1.251 -2.501,-1.924 -3.174,-5.099 -4.329,-4.233 -1.251,0.866 4.81,4.81 2.309,5.195 -2.501,0.385 -2.694,1.828 -4.041,2.694 -1.443,0.769 -7.215,0 -5.772,1.732 1.443,1.731 3.079,4.233 1.539,4.714 -1.539,0.481 -4.329,-1.059 -3.944,0.481 0.481,1.539 3.463,1.731 2.213,3.463 -1.251,1.732 -9.813,-1.732 -6.831,0.577 2.982,2.309 4.618,3.56 3.752,4.811 -0.962,1.25 -5.195,1.443 -5.003,2.982 0.193,1.539 2.79,2.982 2.309,5.291 -0.481,2.309 -2.213,3.56 -2.309,5.292 -0.192,1.731 0.962,3.271 -2.501,3.559 -3.464,0.289 -2.309,4.522 0.77,2.983 3.078,-1.54 4.04,-0.193 5.195,2.501 1.154,2.694 2.212,3.079 2.501,4.81 0.289,1.732 -1.251,3.753 -4.329,3.56 -3.079,-0.192 -3.271,2.983 -1.828,4.233 1.443,1.251 2.694,-0.481 4.522,-2.02 1.827,-1.539 4.329,-3.079 5.579,-0.962 0.77,1.347 -3.078,3.656 -4.714,5.676 -0.962,1.251 -0.865,2.886 0.962,2.79 z"
       id="path19"
       sodipodi:nodetypes="cssccssccccccsssccccsccccccccccccsccccccscccccsccsccccscccccc" /><path
       d="m 968.863,312.048 c -0.096,-0.962 -5.003,-3.56 -5.195,-0.77 -0.289,2.694 4.906,2.598 5.195,0.77 z"
       id="path20"
       sodipodi:nodetypes="ccc" /><path
       d="m 998.013,277.029 c -1.25,-0.289 -1.058,-3.368 0.193,-3.368 1.251,0 1.251,3.079 -0.193,3.368 z"
       id="path21"
       sodipodi:nodetypes="csc" /><path
       d="m 1015.52,282.031 c -0.77,-0.192 -0.385,-2.405 0.77,-2.02 1.25,0.385 0.096,2.309 -0.77,2.02 z"
       id="path22"
       sodipodi:nodetypes="ccc" /><path
       d="m 1031.88,341.487 c -0.866,-1.058 -2.694,-4.81 -3.944,-4.041 -1.251,0.77 -0.962,2.213 0.769,3.56 1.732,1.347 2.694,0.192 3.368,1.924 0.673,1.732 1.154,2.309 1.924,1.636 0.866,-0.674 0.192,-1.732 -2.117,-3.079 z"
       id="path23"
       sodipodi:nodetypes="cccccc" /><path
       d="m 967.42,302.042 c -0.674,0 -1.443,-0.865 -1.443,-0.865 -0.481,-0.578 -1.251,-1.251 -2.405,-1.444 -1.828,-0.288 -1.732,0.289 -2.117,1.444 -0.289,0.962 2.405,1.924 3.944,1.539 0.77,-0.096 1.54,-0.096 2.117,0.288 1.732,1.059 3.079,-0.865 -0.096,-0.962 z"
       id="path24"
       style="display:inline"
       sodipodi:nodetypes="ccccccc" /></g><path
     d="m 109.02989,40.395708 c 0.0468,-0.255854 0.3557,0.02973 0.44222,-0.142409 -0.46598,-0.193097 -0.1757,-0.553122 0.0661,-0.76375 -0.5253,-0.0921 -0.14432,-0.739105 0.0381,-0.969044 -0.11052,-0.09185 -0.4891,-0.05361 -0.40906,-0.239211 0.0678,-0.162101 0.31213,0.039 0.35519,-0.172264 -0.85229,-0.144949 -0.59949,-0.828158 -0.83997,-1.272154 -0.63087,-0.0024 -0.56443,-0.681939 -1.43362,-0.689053 0.005,-1.02621 -1.0445,0.251281 -1.58111,-0.543975 -0.26259,0.136058 0.12501,0.368155 -0.15422,0.733007 -0.4797,-0.08423 -0.76286,0.234893 -1.35092,-0.07127 0.0888,0.793223 -0.29219,1.453311 -1.04057,1.311664 0.0589,0.215202 0.62287,0.18395 0.52429,0.475121 -0.48884,0.739867 -0.8866,1.148547 -0.93157,2.136138 0.43955,0.209993 0.37629,0.541688 0.0216,0.794112 0.31556,0.04599 0.42265,-0.33322 0.82384,-0.11065 -0.0384,0.117129 0.1264,0.134025 0.11624,0.236671 0.002,0.320516 -0.45442,0.448443 -0.24303,0.702772 0.16807,-0.306033 0.58628,-0.0982 0.97044,0.03811 -0.0969,0.266525 -0.0748,0.475502 0.0823,0.618165 0.34809,-0.87313 1.3137,-0.242134 1.46564,0.308193 0.0944,-0.155875 0.1621,-0.367647 0.38479,-0.260554 0.85128,0.31518 0.1555,1.385473 0.51044,1.943803 0.29549,-0.653482 -0.14406,-2.35261 1.02138,-2.399995 0.20136,0.267668 0.22296,0.622865 0.37362,0.914671 0.0296,-0.546389 -0.21279,-1.546937 0.51641,-1.787293 0.52136,0.08715 0.51819,0.428752 0.87554,0.596061 -0.0596,-0.531144 -0.9571,-0.65399 -0.60406,-1.38687 z"
     id="path16"
     style="clip-rule:evenodd;display:inline;fill-rule:evenodd;stroke-width:0.127038;stroke-linejoin:round;stroke-miterlimit:2"
     inkscape:label="middle splotch" /><g
     id="g9"
     style="clip-rule:evenodd;display:inline;fill-rule:evenodd;stroke-linejoin:round;stroke-miterlimit:2"
     inkscape:label="first splotch"
     transform="matrix(0.12703764,0,0,0.12703764,-8.62183,-1.5359219)"><path
       d="m 769.442,312.327 c 1.539,-3.271 7.119,10.198 8.851,-6.061 0.192,-1.635 -0.192,-3.944 -3.944,-7.215 -3.656,-3.175 0.384,-8.562 3.848,-0.385 1.443,3.464 12.122,3.656 7.6,-3.56 0,0 -0.577,-8.081 1.539,2.983 0.385,1.924 7.12,-0.866 5.196,-12.796 -0.77,-4.618 3.463,-8.177 2.886,5.388 -0.096,2.02 2.982,0.096 4.04,5.388 2.021,0.865 -0.673,-2.598 2.79,0.769 5.869,5.869 9.332,-19.53 10.487,-12.988 0.577,3.656 -5.099,10.872 0.385,8.948 1.828,-0.674 4.906,-6.543 3.944,1.058 -0.769,6.349 18.376,-6.831 8.659,3.559 -4.137,4.426 14.238,-0.096 3.752,5.099 -4.041,2.021 3.559,0.289 0.577,4.714 -1.732,2.598 3.848,2.983 -0.962,4.715 -1.924,0.673 4.426,2.982 7.793,2.79 3.175,-0.193 1.731,3.078 -1.828,2.501 -7.985,-1.347 -3.56,5.291 -6.35,7.312 -2.694,1.924 2.021,1.828 1.347,5.291 -0.385,2.213 2.598,-1.154 3.271,4.041 0.193,1.443 7.119,1.25 7.119,4.04 0,2.79 -7.119,-4.521 -13.565,-3.656 -0.962,0.097 -6.253,-5.387 -1.347,5.388 1.925,4.522 16.163,12.796 17.702,14.912 0.866,1.251 4.33,5.003 1.251,6.638 -2.982,1.636 -10.775,-9.909 -17.028,-14.527 -1.54,-1.154 -2.983,-8.562 -3.945,2.117 -0.096,1.25 -5.003,1.924 1.443,10.486 4.041,5.292 -0.962,4.233 -4.329,-5.387 -3.367,-0.866 -7.504,0.673 -7.985,-1.732 -5.099,-1.732 0.288,14.335 -3.271,12.026 -3.56,-2.213 1.924,-4.811 -0.866,-10.679 -1.155,-2.405 -5.292,-0.481 -3.271,5.772 0.769,2.405 -4.714,2.021 -1.539,-2.886 1.25,-5.58 -2.213,0.577 -6.158,-2.117 -2.212,-1.443 -2.597,4.234 -3.559,-1.539 -0.962,-5.484 -3.945,5.965 -7.216,5.484 -3.271,-0.481 1.924,-3.656 1.443,-10.198 -0.288,-3.367 -5.291,3.175 -7.792,-2.117 -0.866,-1.924 -4.234,2.406 -6.254,0.674 -2.02,-1.732 11.256,-7.312 0.385,-7.793 -0.096,0.096 -5.003,0.096 0.673,-3.656 1.636,-1.058 -5.676,-2.597 -8.177,-4.906 -2.117,-1.924 0,-4.522 4.906,-4.81 2.406,-0.097 -2.212,-3.56 2.213,-4.041 4.426,-0.481 -6.253,-5.773 -4.714,-9.044 z"
       id="path17"
       style="clip-rule:evenodd;display:inline;fill-rule:evenodd;stroke-linejoin:round;stroke-miterlimit:2" /><path
       d="m 820.431,285.293 c -5.195,6.927 -1.443,-0.673 -0.096,-3.367 2.117,-4.618 8.37,-7.504 0.096,3.367 z"
       id="path18"
       style="clip-rule:evenodd;display:inline;fill-rule:evenodd;stroke-linejoin:round;stroke-miterlimit:2" /></g><circle
     cx="22.263056"
     cy="22.314199"
     r="22.006863"
     style="clip-rule:evenodd;fill-rule:evenodd;stroke:#ebebeb;stroke-width:0.0509583px;stroke-linecap:round;stroke-linejoin:round;stroke-miterlimit:1.5"
     id="circle1" /><g
     id="icon-colors"
     serif:id="icon colors"
     style="clip-rule:evenodd;fill-rule:evenodd;stroke-linecap:round;stroke-linejoin:round;stroke-miterlimit:1.5"
     transform="matrix(0.10191667,0,0,0.10191667,0.23071064,0.28185493)"><path
       d="m 86.692,247.534 c -13.29,1.335 -26.698,-0.918 -39.176,-5.544 -18.345,-7.723 -40.428,-28.684 -35.163,-48.072 17.835,28.726 56.188,41.995 88.188,31.025 36.986,-13.878 69.93,-36.434 104.385,-55.441 45.827,-25.258 93.422,-58.241 148.29,-53.612 27.412,2.692 59.059,19.431 61.793,49.786 -19.349,-22.514 -50.396,-33.609 -79.83,-30.509 -53.83,5.625 -98.19,39.885 -144.823,64.207 -34.173,16.574 -65.325,42.068 -103.664,48.16 z"
       style="fill:#f7901d"
       id="path1-3" /><path
       d="m 154.409,407.625 c -5.576,-1.439 -28.563,-6.395 -27.309,-12.516 33.621,-8.9 65.433,-23.893 94.28,-43.243 19.244,-10.674 35.479,-27.147 42.124,-48.404 5.439,-11.49 19.238,-13.39 26.723,-18.951 -6.722,29.876 -23.78,57.517 -48.109,76.459 -25.683,21.547 -56.695,35.03 -87.709,46.655 z"
       style="fill:#276db5"
       id="path2-0" /><path
       d="m 239.614,415.302 c -18.896,1.962 11.439,-10.399 13.399,-14.285 38.533,-28.13 75.574,-69.1 75.825,-119.535 -9.292,-19 22.757,-23.523 18.318,-2.52 4.143,45.385 -24.362,85.884 -56.13,115.229 -13.048,15.113 -32.161,20.128 -51.412,21.111 z"
       style="fill:#3eace2"
       id="path3-4" /><path
       d="m 306.417,396.105 c 0.458,-0.055 -8.286,3.47 -4.398,0.259 33.72,-29.716 57.999,-73.284 54.904,-119.312 -5.588,-16.878 6.082,-9.975 16.088,-6.715 9.401,23.474 0.129,49.208 -8.183,71.606 -9.243,26.482 -34.199,42.721 -58.411,54.162 z"
       style="fill:#318bcb"
       id="path4-8" /><path
       d="m 93.919,276.592 c -2.991,0.456 -6.023,0.527 -9.041,0.617 -31.577,1.872 -70.288,-15.516 -74.345,-50.258 5.184,-2.345 23.397,25.101 38.348,25.723 32.634,13.889 67.505,-0.895 95.965,-17.447 45.657,-24.083 89.479,-51.527 135.963,-74.003 37.01,-18.248 86.787,-26.151 120.56,2.94 11.66,5.828 23.907,34.716 17.459,37.468 -20.237,-34.258 -65.187,-44.007 -101.357,-32.831 -45.715,14.53 -86.103,41.358 -128.256,63.595 -31.178,15.685 -60.688,36.852 -95.296,44.196 z"
       style="fill:#fdda04"
       id="path5-5" /><path
       d="m 86.846,159.492 -2.649,0.243 c -19.364,0.294 -3.403,-31.773 -1.502,-43.537 14.241,-36.741 42.428,-67.554 75.775,-88.058 15.904,-11.863 35.9,-12.148 54.826,-12.914 26.647,-2.829 -10.639,8.009 -16.365,13.216 -40.354,20.689 -77.992,51.814 -95.479,94.658 -8.654,10.158 -0.65,33.668 -14.606,36.392 z"
       style="fill:#fbeb12"
       id="path6-5" /><path
       d="m 108.605,150.997 c -8.582,5.923 -0.835,-11.433 -1.434,-14.208 14.709,-50.545 60.509,-84.58 106.313,-105.756 21.551,-12.752 46.657,-14.539 69.858,-5.48 -8.244,5.53 -27.784,6.74 -39.495,12.499 -34.602,13.706 -67.605,33.715 -93.116,61.056 -18.666,14.461 -17.505,45.977 -42.126,51.889 z"
       style="fill:#fce712"
       id="path7-5" /><path
       d="m 104.374,359.944 -3.674,0.269 -2.431,0.095 c -18.515,2.681 -39.35,-6.103 -46.301,-23.266 22.216,6.522 46.164,6.65 68.524,0.357 36.379,-11.266 68.54,-32.574 102.131,-50.065 38.145,-18.517 73.011,-46.22 115.304,-54.662 21.695,-4.014 43.512,3.494 59.474,18.268 12.647,3.972 16.402,40.806 3.292,31.737 -7.069,-20.898 -30.347,-31.779 -51.227,-30.933 -40.218,4.963 -74.619,28.724 -109.64,47.331 -44.175,22.141 -85.171,54.288 -135.452,60.869 z"
       style="fill:#50c9ed"
       id="path8-4" /><path
       d="m 37.793,142.453 c -8.923,-2.048 -7.643,-22.018 0.963,-30.519 6.265,-5.996 -6.069,22.443 -0.963,30.519 z"
       style="fill:#d6204d"
       id="path9-2" /><path
       d="m 378.531,337.171 -1.461,2.158 0.222,-2.34 c 7.781,-18.176 9.484,-38.508 10.519,-57.615 17.548,16.789 1.775,41.642 -9.28,57.797 z"
       style="fill:#233d7c"
       id="path10-1" /><path
       d="m 116.827,385.47 c -6.071,5.444 -35.637,-12.233 -29.084,-15.705 54.172,1.073 99.455,-32.235 145.303,-56.257 26.543,-21.385 11.225,15.247 -3.513,21.535 -34.51,22.332 -71.167,45.012 -112.706,50.427 z"
       style="fill:#2b62ae"
       id="path11-9" /><path
       d="m 65.079,159.75 c -4.504,2.152 -11.004,-2.065 -14.562,-4.611 -7.26,-19.115 -0.558,-40.751 7.314,-58.813 8.707,-23.083 28.658,-38.292 48.643,-51.231 5.732,-2.673 35.323,-21.706 22.82,-7.563 C 94.115,68.461 64.167,111.054 65.079,159.75 Z"
       style="fill:#f26621"
       id="path12-2" /><path
       d="m 144.897,131.262 c -10.989,0.515 15.719,-28.361 19.864,-33.415 30.556,-28.466 68.848,-49.549 109.813,-58.316 20.67,-6.412 45.388,-3.31 60.007,12.705 -22.787,-1.321 -45.886,1.897 -67.528,9.347 -45.466,14.011 -80.859,47.504 -122.156,69.679 z"
       style="fill:#f26421"
       id="path13-4" /><path
       d="m 98.224,304.935 c -18.831,2.501 -38.342,-0.142 -55.433,-8.579 -14.227,-5.708 -27.467,-22.528 -26.907,-35.959 23.624,22.523 58.75,32.385 90.361,23.198 36.309,-12.143 68.324,-34.128 102.31,-51.399 42.863,-21.83 83.731,-52.744 132.891,-57.841 32.111,-3.787 67.662,14.225 76.718,46.662 5.608,20.043 -5.967,5.427 -10.372,-4.299 -23.441,-28.49 -66.184,-27.766 -97.945,-15.342 -39.389,15.102 -74.934,38.42 -112.147,58.003 -32.473,16.456 -63.158,38.508 -99.476,45.556 z"
       style="fill:#43c6ec"
       id="path14-5" /><path
       d="m 85.155,189.134 c -4.233,0.724 -8.538,0.581 -12.813,0.637 -22.729,-0.735 -50.79,-15.526 -51.932,-40.823 5.338,-28.326 11.317,16.934 27.31,16.669 31.058,15.304 64.868,-3.627 90.94,-20.54 55.917,-29.612 106.628,-74.548 171.431,-82.991 19.715,-1.664 42.688,-2.208 56.368,14.813 19.495,17.427 -20.33,-1.763 -29.371,1.963 -53.598,-1.945 -99.877,29.386 -144.308,55.128 -35.684,18.558 -67.981,45.392 -107.625,55.144 z"
       style="fill:#ee306c"
       id="path15-8" /><path
       d="m 211.902,415.868 c -11.139,0.96 -24.334,-0.036 -35.372,-3.083 13.025,-12.188 37.174,-17.902 52.528,-30.867 37.065,-22.435 66.895,-58.999 74.417,-102.361 17.664,-20.996 18.185,12.36 12.558,25.179 -14.259,51.503 -59.42,86.403 -104.131,111.132 z"
       style="fill:#38a1da"
       id="path16-6" /><path
       d="M 95.149,333.482 C 84.14,334.17 73.053,333.3 62.321,330.823 44.191,328.71 31.242,313.015 26.879,296.39 c 26.388,19.604 62.845,24.173 93.544,12.229 56.926,-24.376 108.949,-58.65 164.299,-86.244 32.24,-17.001 74.135,-30.012 107.393,-8.285 10.299,5.195 38.358,36.021 18.174,34.437 -19.406,-22.24 -51.901,-31.547 -80.211,-23.357 -42.626,11.582 -79.323,37.582 -118.074,57.882 -37.876,18.778 -73.653,45.976 -116.855,50.43 z"
       style="fill:#87d3e3"
       id="path17-2" /><path
       d="m 80.235,218.482 c -12.992,0.938 -26.433,-2.252 -37.876,-8.394 -15.124,-7.776 -32,-25.616 -26.681,-42.915 17.86,30.217 59.445,41.231 90.694,25.938 36.815,-16.897 70.226,-40.367 105.78,-59.714 43.665,-25.835 93.032,-53.986 145.751,-43.132 18.977,3.081 35.606,15.056 42.02,33.414 -26.94,-16.964 -60.742,-22.379 -91.524,-13.687 -45.522,11.759 -84.841,38.961 -125.321,61.807 -33.655,16.581 -64.199,43.139 -102.843,46.683 z"
       style="fill:#f5841f"
       id="path18-5" /></g></svg>
